<?xml version="1.0" encoding="utf-8"?>
<!-- Generator: Adobe Illustrator 27.0.0, SVG Export Plug-In . SVG Version: 6.00 Build 0)  -->
<svg version="1.1" id="Layer_1" xmlns="http://www.w3.org/2000/svg" xmlns:xlink="http://www.w3.org/1999/xlink" x="0px" y="0px"
	 viewBox="0 0 179 41" style="enable-background:new 0 0 179 41;" xml:space="preserve">
<style type="text/css">
	.st0{fill-rule:evenodd;clip-rule:evenodd;fill:#F25C54;}
	.st1{fill:#F0FDFA;}
</style>
<g>
	<path class="st0" d="M13.8,0.5c-2.3,0-4.4,0.9-6,2.5L0,10.8v3.5c0,2.5,1.1,4.7,2.8,6.3C1,22.3,0,24.6,0,27v3.5l7.8,7.8
		c3.3,3.3,8.8,3.3,12.1,0c0.1-0.1,0.2-0.2,0.3-0.3c3.2,3.5,8.6,3.7,12.1,0.6c0.1-0.1,0.2-0.2,0.3-0.3l7.8-7.8V27
		c0-2.5-1.1-4.7-2.8-6.3c1.8-1.6,2.8-3.9,2.8-6.3v-3.5l-7.8-7.8c-3.3-3.3-8.8-3.3-12.1,0c-0.1,0.1-0.2,0.2-0.3,0.3
		C18.5,1.6,16.2,0.5,13.8,0.5z M26,20.7c-0.1-0.1-0.2-0.2-0.3-0.3l-5.5-5.4l-5.5,5.5c-0.1,0.1-0.2,0.2-0.3,0.3
		c0.1,0.1,0.2,0.2,0.3,0.3l5.5,5.5l5.5-5.5C25.8,20.9,25.9,20.8,26,20.7z M22.3,30.5v1.7c0,2.2,1.8,4.1,4.1,4.1
		c1.1,0,2.1-0.4,2.9-1.2l6.4-6.4V27c0-2.2-1.8-4.1-4.1-4.1c-1.1,0-2.1,0.4-2.9,1.2C28.8,24.1,22.3,30.5,22.3,30.5z M17.9,30.5
		l-6.4-6.4c-1.6-1.6-4.2-1.6-5.7,0c-0.8,0.8-1.2,1.8-1.2,2.9v1.7l6.4,6.4c1.6,1.6,4.2,1.6,5.7,0c0.8-0.8,1.2-1.8,1.2-2.9V30.5z
		 M17.9,9.1v1.7l-6.4,6.4c-1.6,1.6-4.2,1.6-5.7,0c-0.8-0.8-1.2-1.8-1.2-2.9v-1.7L11,6.2c1.6-1.6,4.2-1.6,5.7,0
		C17.4,7,17.9,8,17.9,9.1z M28.8,17.3l-6.4-6.4V9.1c0-2.2,1.8-4,4.1-4c1.1,0,2.1,0.4,2.9,1.2l6.4,6.4v1.7c0,2.2-1.8,4.1-4.1,4.1
		C30.6,18.5,29.6,18.1,28.8,17.3z"/>
</g>
<path class="st1" d="M54.7,29.2V12.3h11.6v3.1h-8v3.6H65V22h-6.7v4.1h8.1v3.1C66.3,29.2,54.7,29.2,54.7,29.2z M67.6,29.2l4.4-6
	l-4.1-6.1h4.4l2.1,3.7l2.1-3.7h4.3l-4,6l4.3,6.1h-4.5l-2.4-3.7l-2.3,3.7H67.6z M88,29.6c-1.3,0-2.3-0.4-3.1-1.1
	c-0.7-0.7-1.1-1.8-1.1-3.3V13.5h3.5v3.5h3v2.8h-3v4.6c0,0.7,0.1,1.2,0.4,1.5c0.3,0.3,0.7,0.4,1.2,0.4c0.3,0,0.5,0,0.7-0.1
	c0.2-0.1,0.5-0.2,0.7-0.3l0.5,2.8c-0.4,0.2-0.8,0.4-1.3,0.5C89.1,29.5,88.6,29.6,88,29.6z M81.3,19.9v-2.8h2.8v2.8H81.3L81.3,19.9z
	 M98.6,29.6c-1.3,0-2.5-0.3-3.5-0.8c-1-0.5-1.8-1.3-2.3-2.2c-0.6-1-0.8-2.1-0.8-3.4c0-0.9,0.2-1.8,0.5-2.6c0.3-0.8,0.8-1.5,1.4-2
	c0.6-0.6,1.3-1,2.1-1.3c0.8-0.3,1.7-0.5,2.6-0.5c1,0,2,0.2,2.8,0.6c0.8,0.3,1.5,0.9,2,1.5c0.5,0.7,0.9,1.4,1.1,2.3
	c0.2,0.9,0.2,1.9,0.1,2.9h-9.4c0,0.6,0.1,1,0.4,1.5c0.3,0.4,0.7,0.7,1.2,1c0.5,0.2,1.2,0.3,1.9,0.3s1.4-0.1,2-0.3
	c0.6-0.2,1.3-0.5,1.8-0.9l1.2,2.4c-0.4,0.3-0.9,0.6-1.4,0.8c-0.6,0.2-1.2,0.4-1.8,0.5C99.8,29.5,99.2,29.6,98.6,29.6L98.6,29.6z
	 M95.3,21.6h5.7c0-0.7-0.3-1.3-0.8-1.7c-0.5-0.4-1.1-0.6-2-0.6s-1.5,0.2-2.1,0.6C95.7,20.3,95.4,20.9,95.3,21.6z M106.5,29.2V17.1
	h3.5v1.4c0.5-0.6,1-1,1.6-1.3c0.6-0.3,1.3-0.4,2-0.4c1.1,0,2.1,0.2,2.8,0.7c0.7,0.4,1.3,1,1.6,1.7c0.4,0.7,0.5,1.4,0.5,2.2v7.9h-3.5
	v-6.8c0-0.8-0.2-1.4-0.6-1.8c-0.4-0.5-1-0.7-1.8-0.7c-0.5,0-1,0.1-1.4,0.3c-0.4,0.2-0.7,0.5-0.9,0.9c-0.2,0.4-0.3,0.9-0.3,1.4v6.7
	C110,29.2,106.5,29.2,106.5,29.2z M125.9,29.5c-1.1,0-2.1-0.1-3-0.4c-0.9-0.3-1.7-0.7-2.3-1.2l1.1-2.4c0.6,0.4,1.3,0.8,2.1,1
	c0.7,0.2,1.4,0.4,2.1,0.4c0.7,0,1.2-0.1,1.5-0.3c0.4-0.2,0.6-0.5,0.6-0.9c0-0.3-0.2-0.6-0.5-0.8c-0.3-0.2-0.9-0.3-1.9-0.5
	c-1.6-0.3-2.8-0.7-3.5-1.4c-0.7-0.6-1.1-1.5-1.1-2.6c0-0.8,0.2-1.4,0.6-2s1-1,1.8-1.4c0.8-0.3,1.6-0.5,2.6-0.5s1.9,0.1,2.7,0.4
	c0.9,0.3,1.6,0.6,2.2,1.1l-1.1,2.5c-0.3-0.3-0.7-0.5-1.1-0.7c-0.4-0.2-0.8-0.3-1.3-0.4c-0.4-0.1-0.9-0.2-1.3-0.2
	c-0.6,0-1.1,0.1-1.4,0.3c-0.4,0.2-0.5,0.5-0.5,0.8c0,0.3,0.2,0.6,0.5,0.8s0.9,0.4,1.8,0.6c1.7,0.4,2.9,0.8,3.6,1.4
	c0.7,0.6,1.1,1.4,1.1,2.4c0,0.8-0.2,1.5-0.7,2.1c-0.4,0.6-1,1.1-1.8,1.4C128,29.4,127.1,29.5,125.9,29.5L125.9,29.5z M133.4,29.2
	V17.1h3.5v12.2H133.4z M135.2,15.1c-0.6,0-1.1-0.2-1.5-0.5c-0.4-0.4-0.6-0.9-0.6-1.5s0.2-1.1,0.6-1.5c0.4-0.4,1-0.6,1.5-0.6
	c0.6,0,1.1,0.2,1.5,0.6s0.6,0.8,0.6,1.5c0,0.6-0.2,1.1-0.6,1.5C136.3,14.9,135.7,15.1,135.2,15.1z M145.6,29.6
	c-1.3,0-2.5-0.3-3.5-0.9c-1-0.6-1.8-1.4-2.4-2.3c-0.6-1-0.9-2.1-0.9-3.2c0-0.9,0.2-1.7,0.5-2.4c0.3-0.8,0.8-1.5,1.4-2.1
	c0.6-0.6,1.3-1.1,2.1-1.4c0.8-0.3,1.7-0.5,2.7-0.5c1.3,0,2.5,0.3,3.5,0.9c1,0.6,1.8,1.4,2.4,2.3c0.6,1,0.9,2,0.9,3.2
	c0,0.8-0.2,1.7-0.5,2.4c-0.3,0.8-0.8,1.5-1.4,2.1c-0.6,0.6-1.3,1.1-2.1,1.4S146.6,29.6,145.6,29.6L145.6,29.6z M145.6,26.5
	c0.6,0,1.2-0.1,1.7-0.4c0.5-0.3,0.9-0.7,1.2-1.2c0.3-0.5,0.4-1.1,0.4-1.8s-0.1-1.3-0.4-1.8c-0.3-0.5-0.7-0.9-1.1-1.2
	c-0.5-0.3-1-0.4-1.7-0.4c-0.7,0-1.2,0.1-1.7,0.4c-0.5,0.3-0.9,0.7-1.2,1.2c-0.3,0.5-0.4,1.1-0.4,1.8c0,0.7,0.1,1.3,0.4,1.8
	c0.3,0.5,0.7,0.9,1.2,1.2C144.5,26.4,145,26.5,145.6,26.5z M154.2,29.2V17.1h3.5v1.4c0.5-0.6,1-1,1.6-1.3c0.6-0.3,1.3-0.4,2-0.4
	c1.1,0,2.1,0.2,2.8,0.7c0.7,0.4,1.3,1,1.6,1.7c0.4,0.7,0.5,1.4,0.5,2.2v7.9h-3.5v-6.8c0-0.8-0.2-1.4-0.6-1.8c-0.4-0.5-1-0.7-1.8-0.7
	c-0.5,0-1,0.1-1.4,0.3c-0.4,0.2-0.7,0.5-0.9,0.9c-0.2,0.4-0.3,0.9-0.3,1.4v6.7H154.2L154.2,29.2z M173.7,29.5c-1.1,0-2.1-0.1-3-0.4
	c-0.9-0.3-1.7-0.7-2.3-1.2l1.1-2.4c0.6,0.4,1.3,0.8,2.1,1c0.7,0.2,1.4,0.4,2.1,0.4c0.7,0,1.2-0.1,1.5-0.3c0.4-0.2,0.6-0.5,0.6-0.9
	c0-0.3-0.2-0.6-0.5-0.8c-0.3-0.2-0.9-0.3-1.9-0.5c-1.6-0.3-2.8-0.7-3.5-1.4c-0.7-0.6-1.1-1.5-1.1-2.6c0-0.8,0.2-1.4,0.6-2
	c0.4-0.6,1-1,1.8-1.4c0.8-0.3,1.6-0.5,2.6-0.5s1.9,0.1,2.7,0.4c0.9,0.3,1.6,0.6,2.2,1.1l-1.1,2.5c-0.3-0.3-0.7-0.5-1.1-0.7
	c-0.4-0.2-0.8-0.3-1.3-0.4c-0.4-0.1-0.9-0.2-1.3-0.2c-0.6,0-1.1,0.1-1.4,0.3c-0.4,0.2-0.5,0.5-0.5,0.8c0,0.3,0.2,0.6,0.5,0.8
	s0.9,0.4,1.8,0.6c1.7,0.4,2.9,0.8,3.6,1.4c0.7,0.6,1.1,1.4,1.1,2.4c0,0.8-0.2,1.5-0.7,2.1c-0.4,0.6-1,1.1-1.8,1.4
	C175.7,29.4,174.8,29.5,173.7,29.5L173.7,29.5z"/>
</svg>
